<svg xmlns="http://www.w3.org/2000/svg" viewBox="0 0 100 110" width="100" height="110"><g><rect x="30" y="0" width="10" height="10" fill="#c7a25a"/><rect x="50" y="0" width="10" height="10" fill="#c7a25a"/><rect x="40" y="10" width="10" height="10" fill="#c7a25a"/><rect x="30" y="20" width="10" height="10" fill="#c7a25a"/><rect x="50" y="20" width="10" height="10" fill="#c7a25a"/><rect x="40" y="40" width="10" height="10" fill="#9988ee"/><rect x="30" y="50" width="10" height="10" fill="#9988ee"/><rect x="40" y="50" width="10" height="10" fill="#9988ee"/><rect x="50" y="50" width="10" height="10" fill="#9988ee"/><rect x="40" y="60" width="10" height="10" fill="#9988ee"/><rect x="40" y="70" width="10" height="10" fill="#9988ee"/><rect x="40" y="80" width="10" height="10" fill="#9988ee"/><rect x="40" y="90" width="10" height="10" fill="#9988ee"/><rect x="30" y="100" width="10" height="10" fill="#9988ee"/><rect x="40" y="100" width="10" height="10" fill="#9988ee"/><rect x="50" y="100" width="10" height="10" fill="#9988ee"/></g></svg>