<svg xmlns="http://www.w3.org/2000/svg" viewBox="0 0 117 108" width="117" height="108"><rect x="0" y="0" width="9" height="9" fill="#c09858"/><rect x="36" y="0" width="9" height="9" fill="#c09858"/><rect x="72" y="0" width="9" height="9" fill="#c09858"/><rect x="0" y="9" width="9" height="9" fill="#c09858"/><rect x="9" y="9" width="9" height="9" fill="#c09858"/><rect x="36" y="9" width="9" height="9" fill="#c09858"/><rect x="45" y="9" width="9" height="9" fill="#c09858"/><rect x="72" y="9" width="9" height="9" fill="#c09858"/><rect x="81" y="9" width="9" height="9" fill="#c09858"/><rect x="9" y="18" width="9" height="9" fill="#c09858"/><rect x="18" y="18" width="9" height="9" fill="#c09858"/><rect x="36" y="18" width="9" height="9" fill="#c09858"/><rect x="45" y="18" width="9" height="9" fill="#c09858"/><rect x="72" y="18" width="9" height="9" fill="#c09858"/><rect x="81" y="18" width="9" height="9" fill="#c09858"/><rect x="18" y="27" width="9" height="9" fill="#c09858"/><rect x="27" y="27" width="9" height="9" fill="#c09858"/><rect x="36" y="27" width="9" height="9" fill="#c09858"/><rect x="72" y="27" width="9" height="9" fill="#c09858"/><rect x="81" y="27" width="9" height="9" fill="#c09858"/><rect x="27" y="36" width="9" height="9" fill="#c09858"/><rect x="36" y="36" width="9" height="9" fill="#c09858"/><rect x="45" y="36" width="9" height="9" fill="#c09858"/><rect x="81" y="36" width="9" height="9" fill="#c09858"/><rect x="90" y="36" width="9" height="9" fill="#c09858"/><rect x="27" y="45" width="9" height="9" fill="#c09858"/><rect x="36" y="45" width="9" height="9" fill="#c09858"/><rect x="45" y="45" width="9" height="9" fill="#c09858"/><rect x="81" y="45" width="9" height="9" fill="#c09858"/><rect x="90" y="45" width="9" height="9" fill="#c09858"/><rect x="27" y="54" width="9" height="9" fill="#c09858"/><rect x="36" y="54" width="9" height="9" fill="#c09858"/><rect x="81" y="54" width="9" height="9" fill="#c09858"/><rect x="90" y="54" width="9" height="9" fill="#c09858"/><rect x="36" y="63" width="9" height="9" fill="#c09858"/><rect x="45" y="63" width="9" height="9" fill="#c09858"/><rect x="90" y="63" width="9" height="9" fill="#c09858"/><rect x="99" y="63" width="9" height="9" fill="#c09858"/><rect x="36" y="72" width="9" height="9" fill="#c09858"/><rect x="45" y="72" width="9" height="9" fill="#c09858"/><rect x="54" y="72" width="9" height="9" fill="#c09858"/><rect x="90" y="72" width="9" height="9" fill="#c09858"/><rect x="99" y="72" width="9" height="9" fill="#c09858"/><rect x="45" y="81" width="9" height="9" fill="#c09858"/><rect x="54" y="81" width="9" height="9" fill="#c09858"/><rect x="81" y="81" width="9" height="9" fill="#c09858"/><rect x="90" y="81" width="9" height="9" fill="#c09858"/><rect x="54" y="90" width="9" height="9" fill="#c09858"/><rect x="63" y="90" width="9" height="9" fill="#c09858"/></svg>